<svg xmlns="http://www.w3.org/2000/svg" viewBox="0 0 1600 700" role="img" aria-label="Paysage méditerranéen stylisé">
  <defs>
    <linearGradient id="sky" x1="0" y1="0" x2="0" y2="1"><stop offset="0" stop-color="#9bdcff"/><stop offset=".58" stop-color="#eef9ff"/><stop offset="1" stop-color="#ffffff"/></linearGradient>
    <linearGradient id="sea" x1="0" y1="0" x2="1" y2="1"><stop offset="0" stop-color="#23a7e8"/><stop offset="1" stop-color="#0878b9"/></linearGradient>
    <linearGradient id="hill" x1="0" y1="0" x2="1" y2="1"><stop offset="0" stop-color="#f6f2e9"/><stop offset="1" stop-color="#d6cbb7"/></linearGradient>
    <filter id="soft" x="-20%" y="-20%" width="140%" height="140%"><feGaussianBlur stdDeviation="18"/></filter>
  </defs>
  <rect width="1600" height="700" fill="url(#sky)"/>
  <circle cx="1220" cy="90" r="95" fill="#fff6d8" opacity=".86" filter="url(#soft)"/>
  <path d="M0 390 C240 345 420 350 620 405 S1000 455 1600 360 L1600 700 L0 700Z" fill="url(#sea)"/>
  <path d="M850 420 C1000 300 1150 275 1300 350 C1430 415 1490 430 1600 405 L1600 610 C1460 615 1350 595 1240 560 C1110 520 1010 500 850 520Z" fill="url(#hill)"/>
  <g fill="#fff" stroke="#dfe8ef" stroke-width="3">
    <rect x="1030" y="360" width="120" height="62" rx="8"/><rect x="1164" y="350" width="92" height="70" rx="8"/><rect x="1270" y="365" width="110" height="58" rx="8"/>
    <rect x="1090" y="435" width="100" height="60" rx="8"/><rect x="1210" y="430" width="130" height="68" rx="8"/><rect x="1360" y="450" width="110" height="60" rx="8"/>
  </g>
  <g fill="#2f8bc1"><circle cx="1070" cy="389" r="8"/><circle cx="1208" cy="383" r="8"/><circle cx="1318" cy="394" r="8"/><circle cx="1130" cy="466" r="8"/><circle cx="1260" cy="463" r="8"/><circle cx="1410" cy="480" r="8"/></g>
  <g fill="#2d92c7"><path d="M1112 336l20-34 22 34z"/><path d="M1230 326l18-31 19 31z"/><path d="M1340 342l18-31 19 31z"/></g>
  <path d="M150 165 C430 100 650 125 880 215" fill="none" stroke="#ffffff" stroke-width="4" opacity=".55"/>
</svg>
